<?xml version="1.0" encoding="utf-8"?>
<!-- Generator: Adobe Illustrator 17.1.0, SVG Export Plug-In . SVG Version: 6.00 Build 0)  -->
<!DOCTYPE svg PUBLIC "-//W3C//DTD SVG 1.1//EN" "http://www.w3.org/Graphics/SVG/1.1/DTD/svg11.dtd">
<svg version="1.1" id="Layer_1" xmlns="http://www.w3.org/2000/svg" xmlns:xlink="http://www.w3.org/1999/xlink" x="0px" y="0px"
	 viewBox="0 0 200 95.2" enable-background="new 0 0 200 95.2" xml:space="preserve">
<g>
	<g>
		<path fill="#2E3192" d="M39.5,35.7C28.7,35.7,20,44.3,20,54.9c0,10.6,8.6,19.2,19.5,19.2c5.4,0,10.1-1.4,15.1-5.2l-5.8-5.8
			c-2.2,2-5.8,3.3-9,3.3c-5.4,0-8.9-3.6-10.4-7.6h29.2c0.2-2,0.3-2.7,0.3-3.9C59,43.7,49.8,35.7,39.5,35.7z M29.5,50.9
			c1.5-4,5.4-7.7,9.9-7.7c4.6,0,8.6,3.7,10.1,7.7H29.5z M99.3,61.9l-6.5-18h-9.5l11.5,30h9l17.9-41.8l-7.9-16.6L99.3,61.9z
			 M160.8,16.7c-10.4,0-19.8,4.2-26.7,10.9c-0.1-0.3-0.3-0.6-0.4-1l-7.9-16.8c-2.2-4.6-6.8-7.5-11.9-7.5c-0.3,0-0.6,0-0.9,0
			c-5.4,0.4-10,4-11.7,9.2l-1.6,5.1c-12.2,0.1-23,6-29.9,15c-7-9.1-18-15-30.3-15c-21.1,0-38.2,17.1-38.2,38.2
			c0,21.1,17.1,38.2,38.2,38.2c12.3,0,23.3-5.9,30.3-15c7,9.1,18,15,30.3,15c12.3,0,23.3-5.9,30.3-15c7,9.1,18,15,30.3,15
			c21.1,0,38.2-17.1,38.2-38.2C199,33.8,181.9,16.7,160.8,16.7z M160.8,85.3c-15.1,0-27.6-11.4-29.9-25.4h-0.8
			c-2.3,14-14.8,25.5-29.9,25.5c-15.1,0-27.6-11.5-29.9-25.5h-0.8c-2.3,14-14.8,25.4-29.9,25.4c-16.7,0-30.3-13.6-30.3-30.4
			c0-16.7,13.6-30.4,30.3-30.4c15.1,0,27.6,11.4,29.9,25.4h0.8c2.3-14,14.8-25.4,29.9-25.4c1.8,0,3.5,0.2,5.2,0.5l3.5-11.1
			c0.7-2.1,2.5-3.5,4.7-3.7c0.1,0,0.2,0,0.4,0c2,0,3.9,1.2,4.8,3l7.9,16.8c0.6,1.4,0.7,2.9,0.1,4.3l-1.5,3.4
			c2.5,3.6,4.2,8.2,4.9,12.2h0.8c2.3-14,14.8-25.4,29.9-25.4c16.7,0,30.3,13.6,30.3,30.4S177.5,85.3,160.8,85.3z M160.7,35.6
			c-5.4,0-10.8,2-14.6,5.8l5.4,5.4c2.7-2.5,5.4-3.1,8-3.1c5.3,0,8.1,3.1,8.1,7.1h-5.3c-9.5,0-17.3,4-17.3,12.2c0,6.6,4.6,11,11.6,11
			c3.8,0,7.4-0.7,10.4-3v2.7h10v-21c0-6.1-1.3-9.7-4.6-13C170,37.4,165.7,35.6,160.7,35.6z M167,64.1c-2,1.6-5.1,2.5-7.8,2.5
			c-3.1,0-5.2-2-5.2-4.5c0-3.6,4.2-5.1,9.3-5.1h3.7V64.1z"/>
	</g>
</g>
</svg>
